<mxfile host="app.diagrams.net" agent="Mozilla/5.0 (X11; Linux x86_64) AppleWebKit/537.36 (KHTML, like Gecko) Chrome/126.0.0.0 Safari/537.36" version="24.7.4">
  <diagram name="Page-1" id="j-6XmmDStA6ynj2FqMqm">
    <mxGraphModel dx="1503" dy="919" grid="1" gridSize="10" guides="1" tooltips="1" connect="1" arrows="1" fold="1" page="1" pageScale="1" pageWidth="850" pageHeight="1100" math="0" shadow="0">
      <root>
        <mxCell id="0" />
        <mxCell id="1" parent="0" />
        <mxCell id="mAGXkcVHoiI7nalTXIUW-9" value="" style="edgeStyle=orthogonalEdgeStyle;rounded=0;orthogonalLoop=1;jettySize=auto;html=1;" edge="1" parent="1" source="mAGXkcVHoiI7nalTXIUW-3" target="mAGXkcVHoiI7nalTXIUW-4">
          <mxGeometry relative="1" as="geometry" />
        </mxCell>
        <mxCell id="mAGXkcVHoiI7nalTXIUW-3" value="User type email and password" style="shape=parallelogram;perimeter=parallelogramPerimeter;whiteSpace=wrap;html=1;fixedSize=1;" vertex="1" parent="1">
          <mxGeometry x="220" y="160" width="240" height="60" as="geometry" />
        </mxCell>
        <mxCell id="mAGXkcVHoiI7nalTXIUW-7" value="" style="edgeStyle=orthogonalEdgeStyle;rounded=0;orthogonalLoop=1;jettySize=auto;html=1;" edge="1" parent="1" source="mAGXkcVHoiI7nalTXIUW-4" target="mAGXkcVHoiI7nalTXIUW-6">
          <mxGeometry relative="1" as="geometry" />
        </mxCell>
        <mxCell id="mAGXkcVHoiI7nalTXIUW-8" value="false" style="edgeLabel;html=1;align=center;verticalAlign=middle;resizable=0;points=[];" vertex="1" connectable="0" parent="mAGXkcVHoiI7nalTXIUW-7">
          <mxGeometry x="0.1273" y="-4" relative="1" as="geometry">
            <mxPoint as="offset" />
          </mxGeometry>
        </mxCell>
        <mxCell id="mAGXkcVHoiI7nalTXIUW-11" value="" style="edgeStyle=orthogonalEdgeStyle;rounded=0;orthogonalLoop=1;jettySize=auto;html=1;" edge="1" parent="1" source="mAGXkcVHoiI7nalTXIUW-4" target="mAGXkcVHoiI7nalTXIUW-10">
          <mxGeometry relative="1" as="geometry" />
        </mxCell>
        <mxCell id="mAGXkcVHoiI7nalTXIUW-15" value="true" style="edgeLabel;html=1;align=center;verticalAlign=middle;resizable=0;points=[];" vertex="1" connectable="0" parent="mAGXkcVHoiI7nalTXIUW-11">
          <mxGeometry x="-0.0889" y="1" relative="1" as="geometry">
            <mxPoint as="offset" />
          </mxGeometry>
        </mxCell>
        <mxCell id="mAGXkcVHoiI7nalTXIUW-4" value="isValid?" style="rhombus;whiteSpace=wrap;html=1;" vertex="1" parent="1">
          <mxGeometry x="250" y="290" width="180" height="80" as="geometry" />
        </mxCell>
        <mxCell id="mAGXkcVHoiI7nalTXIUW-6" value="End" style="ellipse;whiteSpace=wrap;html=1;" vertex="1" parent="1">
          <mxGeometry x="20" y="290" width="120" height="80" as="geometry" />
        </mxCell>
        <mxCell id="mAGXkcVHoiI7nalTXIUW-13" value="" style="edgeStyle=orthogonalEdgeStyle;rounded=0;orthogonalLoop=1;jettySize=auto;html=1;" edge="1" parent="1" source="mAGXkcVHoiI7nalTXIUW-10" target="mAGXkcVHoiI7nalTXIUW-12">
          <mxGeometry relative="1" as="geometry" />
        </mxCell>
        <mxCell id="mAGXkcVHoiI7nalTXIUW-14" value="false" style="edgeLabel;html=1;align=center;verticalAlign=middle;resizable=0;points=[];" vertex="1" connectable="0" parent="mAGXkcVHoiI7nalTXIUW-13">
          <mxGeometry x="0.0222" y="-3" relative="1" as="geometry">
            <mxPoint as="offset" />
          </mxGeometry>
        </mxCell>
        <mxCell id="mAGXkcVHoiI7nalTXIUW-34" value="" style="edgeStyle=orthogonalEdgeStyle;rounded=0;orthogonalLoop=1;jettySize=auto;html=1;" edge="1" parent="1" source="mAGXkcVHoiI7nalTXIUW-10" target="mAGXkcVHoiI7nalTXIUW-33">
          <mxGeometry relative="1" as="geometry" />
        </mxCell>
        <mxCell id="mAGXkcVHoiI7nalTXIUW-46" value="true" style="edgeLabel;html=1;align=center;verticalAlign=middle;resizable=0;points=[];" vertex="1" connectable="0" parent="mAGXkcVHoiI7nalTXIUW-34">
          <mxGeometry x="-0.7091" y="1" relative="1" as="geometry">
            <mxPoint as="offset" />
          </mxGeometry>
        </mxCell>
        <mxCell id="mAGXkcVHoiI7nalTXIUW-10" value="hasBrowserId?" style="rhombus;whiteSpace=wrap;html=1;" vertex="1" parent="1">
          <mxGeometry x="250" y="460" width="180" height="80" as="geometry" />
        </mxCell>
        <mxCell id="mAGXkcVHoiI7nalTXIUW-19" value="" style="edgeStyle=orthogonalEdgeStyle;rounded=0;orthogonalLoop=1;jettySize=auto;html=1;" edge="1" parent="1" source="mAGXkcVHoiI7nalTXIUW-12" target="mAGXkcVHoiI7nalTXIUW-18">
          <mxGeometry relative="1" as="geometry" />
        </mxCell>
        <mxCell id="mAGXkcVHoiI7nalTXIUW-12" value="Get token userId" style="whiteSpace=wrap;html=1;" vertex="1" parent="1">
          <mxGeometry x="255" y="630" width="170" height="60" as="geometry" />
        </mxCell>
        <mxCell id="mAGXkcVHoiI7nalTXIUW-25" value="" style="edgeStyle=orthogonalEdgeStyle;rounded=0;orthogonalLoop=1;jettySize=auto;html=1;" edge="1" parent="1" source="mAGXkcVHoiI7nalTXIUW-18" target="mAGXkcVHoiI7nalTXIUW-24">
          <mxGeometry relative="1" as="geometry" />
        </mxCell>
        <mxCell id="mAGXkcVHoiI7nalTXIUW-18" value="Creating new browser" style="whiteSpace=wrap;html=1;" vertex="1" parent="1">
          <mxGeometry x="227.5" y="770" width="225" height="60" as="geometry" />
        </mxCell>
        <mxCell id="mAGXkcVHoiI7nalTXIUW-48" value="" style="edgeStyle=orthogonalEdgeStyle;rounded=0;orthogonalLoop=1;jettySize=auto;html=1;" edge="1" parent="1" source="mAGXkcVHoiI7nalTXIUW-24" target="mAGXkcVHoiI7nalTXIUW-47">
          <mxGeometry relative="1" as="geometry" />
        </mxCell>
        <mxCell id="mAGXkcVHoiI7nalTXIUW-24" value="Creating new UserOnBrowsers with this userId and browserId" style="whiteSpace=wrap;html=1;" vertex="1" parent="1">
          <mxGeometry x="210" y="910" width="260" height="60" as="geometry" />
        </mxCell>
        <mxCell id="mAGXkcVHoiI7nalTXIUW-29" value="" style="edgeStyle=orthogonalEdgeStyle;rounded=0;orthogonalLoop=1;jettySize=auto;html=1;" edge="1" parent="1" source="mAGXkcVHoiI7nalTXIUW-26" target="mAGXkcVHoiI7nalTXIUW-28">
          <mxGeometry relative="1" as="geometry" />
        </mxCell>
        <mxCell id="mAGXkcVHoiI7nalTXIUW-26" value="Creating authLog with this encryptToken, browserId and userId" style="whiteSpace=wrap;html=1;" vertex="1" parent="1">
          <mxGeometry x="215" y="1180" width="250" height="60" as="geometry" />
        </mxCell>
        <mxCell id="mAGXkcVHoiI7nalTXIUW-31" value="" style="edgeStyle=orthogonalEdgeStyle;rounded=0;orthogonalLoop=1;jettySize=auto;html=1;entryX=0;entryY=0.5;entryDx=0;entryDy=0;" edge="1" parent="1" source="mAGXkcVHoiI7nalTXIUW-28" target="mAGXkcVHoiI7nalTXIUW-32">
          <mxGeometry relative="1" as="geometry">
            <mxPoint x="890" y="1100" as="targetPoint" />
          </mxGeometry>
        </mxCell>
        <mxCell id="mAGXkcVHoiI7nalTXIUW-28" value="Send res { token, browserId, authLogId }" style="shape=parallelogram;perimeter=parallelogramPerimeter;whiteSpace=wrap;html=1;fixedSize=1;" vertex="1" parent="1">
          <mxGeometry x="620" y="1180" width="200" height="60" as="geometry" />
        </mxCell>
        <mxCell id="mAGXkcVHoiI7nalTXIUW-32" value="Finish" style="ellipse;whiteSpace=wrap;html=1;" vertex="1" parent="1">
          <mxGeometry x="930" y="1170" width="120" height="80" as="geometry" />
        </mxCell>
        <mxCell id="mAGXkcVHoiI7nalTXIUW-36" value="" style="edgeStyle=orthogonalEdgeStyle;rounded=0;orthogonalLoop=1;jettySize=auto;html=1;" edge="1" parent="1" source="mAGXkcVHoiI7nalTXIUW-33" target="mAGXkcVHoiI7nalTXIUW-35">
          <mxGeometry relative="1" as="geometry" />
        </mxCell>
        <mxCell id="mAGXkcVHoiI7nalTXIUW-33" value="Find browser by id" style="whiteSpace=wrap;html=1;" vertex="1" parent="1">
          <mxGeometry x="540" y="470" width="120" height="60" as="geometry" />
        </mxCell>
        <mxCell id="mAGXkcVHoiI7nalTXIUW-40" value="" style="edgeStyle=orthogonalEdgeStyle;rounded=0;orthogonalLoop=1;jettySize=auto;html=1;" edge="1" parent="1" source="mAGXkcVHoiI7nalTXIUW-35">
          <mxGeometry relative="1" as="geometry">
            <mxPoint x="1050" y="500" as="targetPoint" />
          </mxGeometry>
        </mxCell>
        <mxCell id="mAGXkcVHoiI7nalTXIUW-45" value="true" style="edgeLabel;html=1;align=center;verticalAlign=middle;resizable=0;points=[];" vertex="1" connectable="0" parent="mAGXkcVHoiI7nalTXIUW-40">
          <mxGeometry x="-0.5294" y="2" relative="1" as="geometry">
            <mxPoint as="offset" />
          </mxGeometry>
        </mxCell>
        <mxCell id="mAGXkcVHoiI7nalTXIUW-35" value="isBrowserExist?" style="rhombus;whiteSpace=wrap;html=1;" vertex="1" parent="1">
          <mxGeometry x="760" y="460" width="180" height="80" as="geometry" />
        </mxCell>
        <mxCell id="mAGXkcVHoiI7nalTXIUW-37" value="" style="endArrow=classic;html=1;rounded=0;exitX=0.5;exitY=1;exitDx=0;exitDy=0;entryX=1;entryY=0.5;entryDx=0;entryDy=0;" edge="1" parent="1" source="mAGXkcVHoiI7nalTXIUW-35" target="mAGXkcVHoiI7nalTXIUW-12">
          <mxGeometry width="50" height="50" relative="1" as="geometry">
            <mxPoint x="640" y="640" as="sourcePoint" />
            <mxPoint x="690" y="590" as="targetPoint" />
            <Array as="points">
              <mxPoint x="850" y="660" />
            </Array>
          </mxGeometry>
        </mxCell>
        <mxCell id="mAGXkcVHoiI7nalTXIUW-38" value="false" style="edgeLabel;html=1;align=center;verticalAlign=middle;resizable=0;points=[];" vertex="1" connectable="0" parent="mAGXkcVHoiI7nalTXIUW-37">
          <mxGeometry x="-0.8459" y="2" relative="1" as="geometry">
            <mxPoint as="offset" />
          </mxGeometry>
        </mxCell>
        <mxCell id="mAGXkcVHoiI7nalTXIUW-41" value="isUserInThisBrowser?" style="rhombus;whiteSpace=wrap;html=1;" vertex="1" parent="1">
          <mxGeometry x="1050" y="460" width="180" height="80" as="geometry" />
        </mxCell>
        <mxCell id="mAGXkcVHoiI7nalTXIUW-42" value="" style="endArrow=classic;html=1;rounded=0;entryX=1;entryY=0.5;entryDx=0;entryDy=0;exitX=0.5;exitY=1;exitDx=0;exitDy=0;" edge="1" parent="1" source="mAGXkcVHoiI7nalTXIUW-41" target="mAGXkcVHoiI7nalTXIUW-24">
          <mxGeometry width="50" height="50" relative="1" as="geometry">
            <mxPoint x="820" y="790" as="sourcePoint" />
            <mxPoint x="690" y="710" as="targetPoint" />
            <Array as="points">
              <mxPoint x="1140" y="940" />
            </Array>
          </mxGeometry>
        </mxCell>
        <mxCell id="mAGXkcVHoiI7nalTXIUW-43" value="false" style="edgeLabel;html=1;align=center;verticalAlign=middle;resizable=0;points=[];" vertex="1" connectable="0" parent="mAGXkcVHoiI7nalTXIUW-42">
          <mxGeometry x="-0.9103" y="2" relative="1" as="geometry">
            <mxPoint as="offset" />
          </mxGeometry>
        </mxCell>
        <mxCell id="mAGXkcVHoiI7nalTXIUW-50" value="" style="edgeStyle=orthogonalEdgeStyle;rounded=0;orthogonalLoop=1;jettySize=auto;html=1;" edge="1" parent="1" source="mAGXkcVHoiI7nalTXIUW-47" target="mAGXkcVHoiI7nalTXIUW-26">
          <mxGeometry relative="1" as="geometry" />
        </mxCell>
        <mxCell id="mAGXkcVHoiI7nalTXIUW-47" value="Encrypt token" style="whiteSpace=wrap;html=1;" vertex="1" parent="1">
          <mxGeometry x="280" y="1050" width="120" height="60" as="geometry" />
        </mxCell>
        <mxCell id="mAGXkcVHoiI7nalTXIUW-51" value="" style="endArrow=classic;html=1;rounded=0;exitX=1;exitY=0.5;exitDx=0;exitDy=0;entryX=1;entryY=0.5;entryDx=0;entryDy=0;" edge="1" parent="1" source="mAGXkcVHoiI7nalTXIUW-41" target="mAGXkcVHoiI7nalTXIUW-47">
          <mxGeometry width="50" height="50" relative="1" as="geometry">
            <mxPoint x="1330" y="730" as="sourcePoint" />
            <mxPoint x="810" y="640" as="targetPoint" />
            <Array as="points">
              <mxPoint x="1230" y="1080" />
            </Array>
          </mxGeometry>
        </mxCell>
        <mxCell id="mAGXkcVHoiI7nalTXIUW-52" value="true" style="edgeLabel;html=1;align=center;verticalAlign=middle;resizable=0;points=[];" vertex="1" connectable="0" parent="mAGXkcVHoiI7nalTXIUW-51">
          <mxGeometry x="-0.8738" y="4" relative="1" as="geometry">
            <mxPoint as="offset" />
          </mxGeometry>
        </mxCell>
        <mxCell id="mAGXkcVHoiI7nalTXIUW-54" value="" style="edgeStyle=orthogonalEdgeStyle;rounded=0;orthogonalLoop=1;jettySize=auto;html=1;" edge="1" parent="1" source="mAGXkcVHoiI7nalTXIUW-53" target="mAGXkcVHoiI7nalTXIUW-3">
          <mxGeometry relative="1" as="geometry" />
        </mxCell>
        <mxCell id="mAGXkcVHoiI7nalTXIUW-53" value="Start" style="ellipse;whiteSpace=wrap;html=1;" vertex="1" parent="1">
          <mxGeometry x="280" y="20" width="120" height="80" as="geometry" />
        </mxCell>
      </root>
    </mxGraphModel>
  </diagram>
</mxfile>
